<svg width="512" height="512" viewBox="0 0 512 512" fill="none" xmlns="http://www.w3.org/2000/svg">
  <rect width="512" height="512" rx="64" fill="#1a1a2e"/>
  <circle cx="256" cy="256" r="200" fill="#ffffff" stroke="#1a1a2e" stroke-width="8"/>
  <path d="M256 96C167.635 96 96 167.635 96 256C96 344.365 167.635 416 256 416C344.365 416 416 344.365 416 256C416 167.635 344.365 96 256 96ZM256 368C311.228 368 356 323.228 356 268C356 212.772 311.228 168 256 168C200.772 168 156 212.772 156 268C156 323.228 200.772 368 256 368Z" fill="#1a1a2e"/>
  <circle cx="256" cy="268" r="40" fill="#ffffff" stroke="#1a1a2e" stroke-width="4"/>
</svg>