<svg xmlns="http://www.w3.org/2000/svg" viewBox="0 0 100 100">
  <rect x="0" y="0" width="100" height="100" fill="none"/>
  <!-- 外圆环 -->
  <circle cx="50" cy="50" r="46" fill="none" stroke="#fbbf24" stroke-width="8" opacity="0.9"/>
  <!-- 内圆环 -->
  <circle cx="50" cy="50" r="40" fill="none" stroke="#fcd34d" stroke-width="3" opacity="0.7"/>
  <!-- 中心背景 -->
  <circle cx="50" cy="50" r="38" fill="#1e1b4b" opacity="0.8"/>
  <!-- 金色加号 -->
  <rect x="44" y="26" width="12" height="48" fill="#fbbf24" rx="2" opacity="0.9"/>
  <rect x="26" y="44" width="48" height="12" fill="#fbbf24" rx="2" opacity="0.9"/>
  <!-- 装饰星星 -->
  <path d="M50 15 L53 23 L60 23 L54 28 L56 36 L50 31 L44 36 L46 28 L40 23 L47 23 Z" fill="#fcd34d" opacity="0.7"/>
  <path d="M50 64 L53 72 L60 72 L54 77 L56 85 L50 80 L44 85 L46 77 L40 72 L47 72 Z" fill="#fcd34d" opacity="0.7"/>
  <path d="M15 50 L23 53 L23 60 L28 54 L36 56 L31 50 L36 44 L28 46 L23 40 L23 47 Z" fill="#fcd34d" opacity="0.7"/>
  <path d="M64 50 L72 53 L72 60 L77 54 L85 56 L80 50 L85 44 L77 46 L72 40 L72 47 Z" fill="#fcd34d" opacity="0.7"/>
</svg>